<svg version="1.1" id="Layer_1" xmlns="http://www.w3.org/2000/svg" xmlns:xlink="http://www.w3.org/1999/xlink" x="0px" y="0px"
	 width="100%" viewBox="0 0 618 100" enable-background="new 0 0 618 100" xml:space="preserve">
<path fill="#FCFDFE" opacity="1.000000" stroke="none" 
	d="
M458.000000,101.000000 
	C305.333344,101.000000 153.166672,101.000000 1.000000,101.000000 
	C1.000000,67.666664 1.000000,34.333332 1.000000,1.000000 
	C207.000000,1.000000 413.000000,1.000000 619.000000,1.000000 
	C619.000000,34.333332 619.000000,67.666664 619.000000,101.000000 
	C565.500000,101.000000 512.000000,101.000000 458.000000,101.000000 
M216.929306,37.769733 
	C216.760956,38.782471 216.592606,39.795212 216.146591,41.455997 
	C216.043579,42.622639 215.940552,43.789276 215.434158,45.571060 
	C215.281754,47.044819 215.129349,48.518581 214.492447,50.627846 
	C214.111603,53.030952 213.730759,55.434059 213.101044,58.449406 
	C212.799438,59.966415 212.497818,61.483421 211.917831,63.766602 
	C211.564377,65.956612 211.210938,68.146614 210.826508,70.528648 
	C215.827011,70.528648 220.193848,70.528648 224.739197,70.528648 
	C225.243668,67.178284 225.705978,64.107803 226.602112,60.421864 
	C226.940079,58.671837 227.278061,56.921810 227.934738,54.555782 
	C228.075577,53.409698 228.216415,52.263611 228.780029,50.616146 
	C230.050659,48.802719 231.321274,46.989288 233.402969,45.049809 
	C235.424744,44.952480 237.446533,44.855152 239.492432,44.756660 
	C240.019745,43.533230 240.560425,42.278763 241.611572,40.468899 
	C242.164795,37.997093 242.718002,35.525288 243.342346,32.735714 
	C237.844254,31.542292 233.983948,33.099766 230.348938,36.781677 
	C230.170044,35.674381 229.991150,34.567081 229.757599,33.121418 
	C226.607910,33.121418 223.527908,33.241104 220.461624,33.087399 
	C217.458710,32.936878 216.807129,34.500893 216.929306,37.769733 
M401.186035,43.938343 
	C400.686493,45.244911 400.186920,46.551479 399.122070,48.372238 
	C399.009949,49.892441 398.897827,51.412643 398.502502,53.571743 
	C398.627502,55.390480 398.752502,57.209217 398.789490,59.779457 
	C399.841797,61.883446 400.894073,63.987434 402.193054,66.746269 
	C408.129364,72.517128 415.436188,71.865082 422.748840,71.100220 
	C430.123260,70.328888 431.879059,67.848282 430.665833,60.846077 
	C425.724243,61.276169 420.851837,61.700241 415.411469,61.831676 
	C414.278412,60.885166 413.145355,59.938660 412.027527,58.299698 
	C411.930023,57.849934 411.832520,57.400169 412.247192,56.242985 
	C417.638519,55.677231 423.019196,54.843304 428.424469,54.628719 
	C432.926331,54.449993 434.886230,52.156219 435.882874,47.457882 
	C435.887329,45.972729 435.891754,44.487576 436.035400,42.247433 
	C435.257446,38.567291 434.533722,34.850151 429.546173,33.165844 
	C420.075714,30.429728 411.675934,31.939745 404.221375,39.765320 
	C403.389099,41.005341 402.556793,42.245361 401.186035,43.938343 
M39.806160,32.223488 
	C41.004280,30.868933 42.202400,29.514376 44.044827,27.990686 
	C45.786148,27.028727 47.527466,26.066769 50.151600,25.161844 
	C56.045979,25.647022 61.940357,26.132200 67.772003,26.612215 
	C68.401886,24.426611 69.016418,22.294300 69.926865,19.540140 
	C70.157280,18.123682 70.387703,16.707224 70.644547,15.128337 
	C59.044952,12.126525 47.842632,11.333679 36.235485,16.923481 
	C34.301254,18.188372 32.367020,19.453262 29.879917,21.008036 
	C28.467104,22.621994 27.054289,24.235952 25.240160,26.007875 
	C24.986954,26.199196 24.874577,26.452906 24.343250,27.183262 
	C23.456013,29.078674 22.568777,30.974089 21.177767,33.326363 
	C20.708225,34.849941 20.238686,36.373524 19.155024,38.398582 
	C19.079931,40.258472 19.004841,42.118366 18.595203,44.593918 
	C18.672462,46.415916 18.749722,48.237915 18.726765,50.860691 
	C18.886982,51.918892 19.047197,52.977089 19.149160,54.541210 
	C19.347351,54.795048 19.545542,55.048885 19.745350,55.343945 
	C19.745350,55.343945 19.714073,55.372276 19.760792,56.040554 
	C19.893366,56.696457 20.025940,57.352364 20.167088,58.690376 
	C22.407822,61.227287 24.648556,63.764198 27.244125,66.882263 
	C36.698570,73.044678 46.879940,72.823997 57.175541,69.880745 
	C58.826683,69.408737 59.916908,66.974602 61.792080,64.849236 
	C62.288612,62.346306 62.785141,59.843372 63.425011,56.617893 
	C59.293514,57.723076 56.064938,58.853584 52.740269,59.412598 
	C47.934826,60.220585 43.006588,60.857811 38.972752,55.966309 
	C38.070847,54.611465 37.168941,53.256618 36.201611,51.114571 
	C35.997089,50.085682 35.792572,49.056793 35.747261,47.233696 
	C35.713757,46.157471 35.680256,45.081249 35.910057,43.250786 
	C36.012436,42.191544 36.114815,41.132305 36.703899,39.596764 
	C37.124767,38.061752 37.545631,36.526737 38.408104,34.649361 
	C38.690014,33.975826 38.971924,33.302296 39.806160,32.223488 
M323.916840,51.419582 
	C323.631317,49.557499 323.345764,47.695419 323.057556,45.050804 
	C323.034698,44.034969 323.011841,43.019138 322.994720,41.304489 
	C321.681458,39.494808 320.368195,37.685123 318.647125,35.307636 
	C310.492889,30.303518 302.266632,30.821037 293.336334,35.136459 
	C291.501343,36.738743 289.666321,38.341026 287.234772,40.214310 
	C286.420654,41.775368 285.606537,43.336430 284.184662,45.325363 
	C283.749786,47.531559 283.314911,49.737751 282.585236,52.599899 
	C282.682098,54.726761 282.778961,56.853626 282.856628,59.747242 
	C285.059540,67.230347 290.101776,71.088539 296.997498,71.390900 
	C305.467163,71.762260 313.063385,70.352661 319.106323,62.840603 
	C320.107819,60.904629 321.109314,58.968658 322.624603,56.488426 
	C322.966370,55.028965 323.308136,53.569504 323.916840,51.419582 
M211.016037,40.331234 
	C210.151779,38.834846 209.287537,37.338459 208.022659,35.212399 
	C199.748474,29.680683 188.375275,31.163723 180.032700,39.141857 
	C178.742249,41.428558 177.451797,43.715260 175.775620,46.601955 
	C175.537964,47.741215 175.300323,48.880470 174.688782,50.655872 
	C174.494110,52.112091 174.299438,53.568306 173.923141,55.848644 
	C174.393677,58.233086 174.864227,60.617527 175.471573,63.640236 
	C180.807449,72.092941 189.054718,72.122971 197.568588,71.188171 
	C205.626862,70.303413 206.959061,68.578270 206.680435,60.826225 
	C201.171829,61.099312 195.664383,61.372337 189.836548,61.105320 
	C188.892334,59.733494 187.948120,58.361668 187.467545,56.280300 
	C191.307175,55.845909 195.146790,55.411518 199.841095,55.037868 
	C211.056381,53.485584 208.482330,55.427456 211.507065,46.465569 
	C211.322388,44.645554 211.137726,42.825542 211.016037,40.331234 
M138.191559,43.264435 
	C137.811295,44.510681 137.431030,45.756931 136.659988,47.591309 
	C136.439087,48.725452 136.218185,49.859596 135.644073,51.665909 
	C135.552567,53.449333 135.461060,55.232761 135.229523,57.717907 
	C135.819489,59.478893 136.409454,61.239880 137.019913,63.705753 
	C139.467911,65.787689 141.636200,69.027786 144.424377,69.701134 
	C149.610474,70.953560 155.184128,71.229507 160.548080,70.957664 
	C167.198502,70.620628 169.191650,66.911385 167.522705,61.025238 
	C162.235077,61.272503 157.172119,61.509258 151.772552,61.217327 
	C150.797668,60.146511 149.822784,59.075695 148.959579,57.147022 
	C152.636826,56.421921 156.314072,55.696819 160.831390,55.063522 
	C172.140457,53.390083 169.948196,55.554352 173.118301,44.254578 
	C172.766647,42.830902 172.415009,41.407227 172.043991,39.309540 
	C171.343979,38.215069 170.643951,37.120602 169.661835,35.376343 
	C161.829910,30.160885 151.907684,30.810087 143.527466,37.289093 
	C141.933884,39.161407 140.340302,41.033722 138.191559,43.264435 
M590.186279,46.323372 
	C590.157837,44.201420 590.129333,42.079464 590.143677,39.248596 
	C589.848206,38.138779 589.552734,37.028957 589.225891,35.189686 
	C584.444824,25.171064 573.555176,21.619825 560.245300,25.946693 
	C552.869568,28.147293 547.720459,32.783936 544.338013,40.425335 
	C543.763184,42.566238 543.188416,44.707146 542.213318,47.561436 
	C542.156555,50.375698 542.099792,53.189964 541.940125,56.776947 
	C543.673706,65.359741 548.715881,70.109642 557.315613,71.127357 
	C568.392822,72.438278 577.861816,69.588417 585.252319,59.882626 
	C586.516907,56.921635 587.781494,53.960640 589.431274,50.418018 
	C589.591553,49.281715 589.751770,48.145409 590.186279,46.323372 
M102.728699,54.459686 
	C103.015366,52.692875 103.302032,50.926060 103.913666,48.549019 
	C103.984917,46.349247 104.056168,44.149475 104.288696,41.183735 
	C103.753166,36.445759 101.016899,33.357826 96.431122,32.955669 
	C91.100830,32.488224 85.589218,32.288158 80.341301,33.128036 
	C73.455353,34.230072 72.503983,36.152588 72.675964,42.171215 
	C78.641098,42.171215 84.556396,42.171215 90.745705,42.906666 
	C90.835945,43.940250 90.926186,44.973835 90.261147,46.292633 
	C86.126678,47.058521 81.992210,47.824409 77.083961,48.618645 
	C73.289368,49.679298 69.418633,50.628231 67.260071,55.326729 
	C66.877937,56.887165 66.495804,58.447601 65.896255,60.807056 
	C66.515198,71.987305 75.808533,74.883514 86.983833,67.882729 
	C88.298660,69.014320 89.360054,70.687027 90.640419,70.875984 
	C93.550156,71.305412 96.808815,71.684708 99.450180,70.746201 
	C101.022545,70.187523 102.066498,67.189934 102.620445,65.096306 
	C102.922142,63.956059 101.704315,62.413757 101.651276,60.314205 
	C101.879913,58.579227 102.108551,56.844246 102.728699,54.459686 
M341.033936,56.280197 
	C341.358337,54.520412 341.682739,52.760624 342.503357,50.551281 
	C343.784088,48.739548 345.064789,46.927814 347.192749,45.014275 
	C348.841705,44.948097 350.601959,45.211033 352.101837,44.703918 
	C353.160492,44.345970 353.866028,42.943638 354.963196,41.383266 
	C355.404816,39.076454 355.846466,36.769642 356.228729,34.772896 
	C351.642944,31.907621 347.708923,32.493904 344.832397,36.480751 
	C341.376129,30.235142 335.819458,34.559109 331.218292,32.735500 
	C330.774963,35.566532 330.428070,37.781708 329.857025,40.747162 
	C329.570923,42.828804 329.284821,44.910446 328.610352,47.620331 
	C328.414825,49.080513 328.219269,50.540695 327.749756,52.710159 
	C327.487335,54.470951 327.224945,56.231747 326.569641,58.577576 
	C326.425964,59.726315 326.282257,60.875050 325.897736,62.758381 
	C325.450867,65.315094 325.003998,67.871803 324.530212,70.582443 
	C329.503540,70.582443 333.924225,70.582443 338.661316,70.582443 
	C338.976166,67.904358 339.263672,65.458900 339.855164,62.296993 
	C340.160767,60.534046 340.466339,58.771095 341.033936,56.280197 
M383.536255,34.366615 
	C375.788269,30.217850 369.614288,30.961813 362.081024,37.097668 
	C360.400360,39.401302 358.719696,41.704937 356.633301,44.411263 
	C356.276398,45.277725 355.919495,46.144188 355.084717,47.709171 
	C354.709564,50.805004 354.334412,53.900837 353.776245,57.779636 
	C354.051178,59.555382 354.326080,61.331127 354.790375,63.826485 
	C354.957916,64.457901 354.968719,65.196823 355.316895,65.704308 
	C359.319122,71.538177 366.237213,72.910995 373.922150,69.560287 
	C374.970306,69.103310 376.623566,66.407532 377.031616,70.696518 
	C374.992310,73.159912 373.256042,77.311066 370.851898,77.742744 
	C365.499664,78.703751 359.813446,77.804573 353.642212,77.647728 
	C352.851044,80.129341 351.665771,83.847038 350.324188,88.055191 
	C354.301697,89.025665 357.779144,90.328911 361.346375,90.657303 
	C371.153107,91.560066 380.615082,90.352493 386.738220,81.539970 
	C389.243103,77.934837 390.148834,73.218590 392.047882,68.198547 
	C391.980255,66.801292 391.912628,65.404030 392.010376,63.268810 
	C392.443146,61.878860 392.875946,60.488907 393.764618,58.486637 
	C393.964386,56.699104 394.164185,54.911575 394.747223,52.511688 
	C395.098145,50.342999 395.449036,48.174309 396.053009,45.250275 
	C396.113922,44.194466 396.174835,43.138660 396.638580,41.578060 
	C396.707581,40.724880 396.776581,39.871704 397.144745,38.272579 
	C397.482330,36.700775 397.819946,35.128967 398.458862,32.154167 
	C393.023254,33.182930 388.532440,34.032879 383.536255,34.366615 
M259.486145,55.416538 
	C259.628571,54.279072 259.770966,53.141609 260.549011,51.443302 
	C266.942383,51.443302 273.335724,51.443302 279.726410,51.443302 
	C280.081848,48.296165 280.322418,46.166077 280.882568,43.206562 
	C281.601624,40.650589 281.196198,39.108845 277.977081,39.253601 
	C274.020020,39.431549 270.036072,39.454514 266.090271,39.173050 
	C264.895416,39.087818 263.788422,37.770168 262.899933,36.254055 
	C262.965729,35.185680 263.031494,34.117306 263.536285,32.409286 
	C263.908142,30.328159 264.279968,28.247034 265.505035,26.105930 
	C270.435394,26.099091 275.365814,26.081106 280.296143,26.088076 
	C287.332794,26.098022 287.332794,26.105831 288.958618,18.465063 
	C289.091370,17.080376 289.224152,15.695688 289.375366,14.118664 
	C277.033691,14.118664 265.228210,14.193573 253.424881,14.067229 
	C250.384781,14.034689 249.621964,15.369365 249.722687,18.697182 
	C249.191238,21.133593 248.659790,23.570004 247.960968,26.799454 
	C247.651962,29.200556 247.342957,31.601658 246.636627,34.658249 
	C246.401047,36.429996 246.165451,38.201748 245.545975,40.627270 
	C245.288040,42.407032 245.030121,44.186794 244.361542,46.568787 
	C244.005798,48.713875 243.650040,50.858963 243.024673,53.787464 
	C242.773972,55.139694 242.523254,56.491928 242.009445,58.472019 
	C241.879501,59.600006 241.749557,60.727997 241.256210,62.405518 
	C241.184067,63.274136 241.111908,64.142754 240.727783,65.671059 
	C240.663651,66.150047 240.599518,66.629036 240.276993,67.393959 
	C240.276993,67.393959 240.337540,67.774559 240.058838,68.455620 
	C238.998474,73.893867 237.938110,79.332115 236.801224,85.162842 
	C240.376740,84.128693 243.193527,82.765602 246.085541,82.580978 
	C254.553833,82.040359 256.920715,76.826797 256.965881,69.494827 
	C256.966888,69.330254 256.930878,69.165459 257.188690,68.194992 
	C257.566284,65.822044 257.943848,63.449097 258.753357,60.469986 
	C258.871063,58.978985 258.988770,57.487984 259.486145,55.416538 
M109.113373,52.459316 
	C108.819344,54.641064 108.525307,56.822811 108.008461,59.742973 
	C107.691887,61.495453 107.375305,63.247932 106.770081,65.739708 
	C106.470078,67.306229 106.170074,68.872749 105.844833,70.571075 
	C110.831390,70.571075 115.262245,70.571075 120.060112,70.571075 
	C120.474983,67.577530 120.858894,64.807434 121.656868,61.283718 
	C121.792076,59.862564 121.927292,58.441414 122.513245,56.436882 
	C122.735207,54.974384 122.957169,53.511887 123.638748,51.548855 
	C124.284729,50.079708 124.930710,48.610561 126.198929,46.763607 
	C129.405197,45.844620 132.611481,44.925636 136.080780,43.313488 
	C136.361694,41.871815 136.642609,40.430145 137.302338,38.303249 
	C137.612717,36.452427 137.923096,34.601604 138.521378,31.033932 
	C134.412491,32.526546 131.636139,33.535103 128.229950,34.786415 
	C127.492783,35.205250 126.755608,35.624084 125.492668,35.428692 
	C124.654175,34.659828 123.885864,33.346329 122.963608,33.227489 
	C120.511002,32.911449 117.982506,33.245350 115.501884,33.070198 
	C112.439453,32.853970 111.719559,34.393818 111.918236,37.720676 
	C111.679825,39.150307 111.441422,40.579941 110.971107,42.704720 
	C110.765602,44.140125 110.560097,45.575535 110.077431,47.779121 
	C109.850784,49.118294 109.624138,50.457466 109.113373,52.459316 
M518.805725,53.878666 
	C519.208618,54.918060 519.611450,55.957451 520.011414,57.766609 
	C521.229492,61.565186 522.447571,65.363754 523.859741,69.925858 
	C525.588928,70.153496 527.318176,70.381134 529.855896,70.756935 
	C531.220215,70.698128 532.584595,70.639313 534.611511,70.796532 
	C535.447754,70.188828 536.284058,69.581123 536.964233,68.241249 
	C535.382568,64.462502 533.800842,60.683758 532.172424,56.146278 
	C531.560059,54.766083 530.947693,53.385887 530.540710,51.311268 
	C531.689514,50.476509 532.838257,49.641750 534.666748,48.793472 
	C540.995544,43.761028 542.489380,38.930347 539.799500,31.329248 
	C536.863525,29.446371 534.108215,26.423077 530.953125,25.923214 
	C524.799194,24.948229 518.422119,25.303219 512.136353,25.259840 
	C505.450134,25.213696 505.449615,25.290756 504.875397,32.757095 
	C504.363098,35.845482 503.850800,38.933872 503.101685,42.755692 
	C502.770386,44.504269 502.439117,46.252846 501.885529,48.734741 
	C501.676971,50.494884 501.468414,52.255028 501.002014,54.808987 
	C500.422028,57.941860 499.842041,61.074734 499.012756,64.820908 
	C498.642883,66.661247 498.273010,68.501587 497.872528,70.494125 
	C502.556610,70.494125 506.607941,70.494125 510.899933,70.494125 
	C511.180359,68.504982 511.428772,66.742897 511.952454,64.195282 
	C512.521423,60.842525 513.090393,57.489765 514.111389,53.635334 
	C515.675293,53.517517 517.239197,53.399700 518.837646,53.165676 
	C518.837646,53.165676 518.721863,53.201496 518.805725,53.878666 
M457.701141,66.685822 
	C457.533600,67.914062 457.366089,69.142296 457.184631,70.472580 
	C458.271332,70.601242 458.918884,70.732819 459.568695,70.744957 
	C461.877502,70.788147 464.203888,70.621635 466.492126,70.850128 
	C469.533813,71.153854 470.748749,69.851059 470.871368,66.171219 
	C470.980225,64.798492 471.089081,63.425766 471.646088,61.489971 
	C472.160675,59.348946 472.675232,57.207920 474.088867,55.107662 
	C478.742249,54.446526 483.395630,53.785393 488.786163,53.060249 
	C491.611481,50.738354 494.436798,48.416458 497.805450,45.616489 
	C500.224091,39.932030 501.379486,34.360008 496.102692,28.711987 
	C494.372833,27.781641 492.686951,26.153410 490.905518,26.041075 
	C482.953857,25.539665 474.975220,25.403772 467.005280,25.367586 
	C466.331635,25.364527 465.650269,27.075619 464.493591,28.610544 
	C463.946991,32.392967 463.400360,36.175392 462.393433,40.538864 
	C462.026825,43.030464 461.660217,45.522068 461.064850,48.700241 
	C460.984924,49.657627 460.905029,50.615013 460.377075,52.215950 
	C460.023804,54.481522 459.670563,56.747093 459.054596,59.760269 
	C458.704712,61.840408 458.354828,63.920544 457.701141,66.685822 
M453.101349,55.023327 
	C458.326599,53.803204 455.293213,49.023914 457.873016,45.713078 
	C453.957977,45.713078 451.021393,45.713078 448.084778,45.713078 
	C445.134888,45.713078 442.184967,45.713078 439.110870,45.713078 
	C438.326691,48.910610 437.634125,51.734482 436.828217,55.020607 
	C442.277283,55.020607 447.226654,55.020607 453.101349,55.023327 
z"/>
<path fill="#1621AD" opacity="1.000000" stroke="none" 
	d="
M391.782074,69.007820 
	C390.148834,73.218590 389.243103,77.934837 386.738220,81.539970 
	C380.615082,90.352493 371.153107,91.560066 361.346375,90.657303 
	C357.779144,90.328911 354.301697,89.025665 350.324188,88.055191 
	C351.665771,83.847038 352.851044,80.129341 353.642212,77.647728 
	C359.813446,77.804573 365.499664,78.703751 370.851898,77.742744 
	C373.256042,77.311066 374.992310,73.159912 377.586151,70.348389 
	C382.687805,69.669449 387.234955,69.338638 391.782074,69.007820 
z"/>
<path fill="#4424BC" opacity="1.000000" stroke="none" 
	d="
M584.775452,60.299812 
	C577.861816,69.588417 568.392822,72.438278 557.315613,71.127357 
	C548.715881,70.109642 543.673706,65.359741 542.439270,56.387215 
	C547.126831,56.161610 551.315247,56.325733 555.494385,56.536934 
	C555.485046,56.584015 555.424194,56.657242 555.368896,56.926498 
	C555.541992,57.464500 555.770386,57.733246 556.261353,58.230568 
	C561.467957,63.593082 566.182312,63.148266 573.241821,56.944504 
	C577.380127,58.077065 581.077820,59.188438 584.775452,60.299812 
z"/>
<path fill="#0E24A7" opacity="1.000000" stroke="none" 
	d="
M101.171822,61.052788 
	C101.704315,62.413757 102.922142,63.956059 102.620445,65.096306 
	C102.066498,67.189934 101.022545,70.187523 99.450180,70.746201 
	C96.808815,71.684708 93.550156,71.305412 90.640419,70.875984 
	C89.360054,70.687027 88.298660,69.014320 86.983833,67.882729 
	C75.808533,74.883514 66.515198,71.987305 66.391556,60.459145 
	C71.736862,60.984612 76.586868,61.857994 81.771683,62.703438 
	C84.339684,61.312000 86.572868,59.948502 89.032257,58.922371 
	C93.229576,59.857422 97.200699,60.455105 101.171822,61.052788 
z"/>
<path fill="#1129AF" opacity="1.000000" stroke="none" 
	d="
M318.600037,63.218742 
	C313.063385,70.352661 305.467163,71.762260 296.997498,71.390900 
	C290.101776,71.088539 285.059540,67.230347 283.331818,59.367760 
	C288.142181,58.663548 292.477386,58.338814 296.940308,58.351879 
	C298.201599,61.822998 300.528656,62.427376 303.919617,61.821587 
	C309.107910,62.358719 313.853973,62.788731 318.600037,63.218742 
z"/>
<path fill="#7139E4" opacity="1.000000" stroke="none" 
	d="
M505.131012,32.009983 
	C505.449615,25.290756 505.450134,25.213696 512.136353,25.259840 
	C518.422119,25.303219 524.799194,24.948229 530.953125,25.923214 
	C534.108215,26.423077 536.863525,29.446371 539.415894,31.667694 
	C535.295959,33.352551 531.559753,34.698956 527.485718,35.896221 
	C523.832642,35.331032 520.517334,34.914982 516.989868,34.149208 
	C512.895447,33.202984 509.013214,32.606483 505.131012,32.009983 
z"/>
<path fill="#1326A9" opacity="1.000000" stroke="none" 
	d="
M190.156937,61.645363 
	C195.664383,61.372337 201.171829,61.099312 206.680435,60.826225 
	C206.959061,68.578270 205.626862,70.303413 197.568588,71.188171 
	C189.054718,72.122971 180.807449,72.092941 175.782532,63.251472 
	C178.821365,62.775650 181.556747,62.783916 184.274612,62.569664 
	C186.247406,62.414143 188.197006,61.964088 190.156937,61.645363 
z"/>
<path fill="#111BA5" opacity="1.000000" stroke="none" 
	d="
M256.912170,69.000763 
	C256.930878,69.165459 256.966888,69.330254 256.965881,69.494827 
	C256.920715,76.826797 254.553833,82.040359 246.085541,82.580978 
	C243.193527,82.765602 240.376740,84.128693 236.801224,85.162842 
	C237.938110,79.332115 238.998474,73.893867 240.706055,68.176231 
	C246.539566,68.264816 251.725861,68.632790 256.912170,69.000763 
z"/>
<path fill="#1883EC" opacity="1.000000" stroke="none" 
	d="
M288.692535,19.080894 
	C287.332794,26.105831 287.332794,26.098022 280.296143,26.088076 
	C275.365814,26.081106 270.435394,26.099091 264.562134,26.090816 
	C258.455597,26.052607 253.291977,26.029510 248.128357,26.006413 
	C248.659790,23.570004 249.191238,21.133593 250.282806,18.346561 
	C258.199219,18.663298 265.544495,19.620007 272.915466,19.900089 
	C278.156525,20.099243 283.432281,19.386599 288.692535,19.080894 
z"/>
<path fill="#1126A9" opacity="1.000000" stroke="none" 
	d="
M152.109177,61.746010 
	C157.172119,61.509258 162.235077,61.272503 167.522705,61.025238 
	C169.191650,66.911385 167.198502,70.620628 160.548080,70.957664 
	C155.184128,71.229507 149.610474,70.953560 144.424377,69.701134 
	C141.636200,69.027786 139.467911,65.787689 137.381500,63.189503 
	C140.591064,62.650761 143.444519,62.727760 146.285110,62.571426 
	C148.235703,62.464073 150.168457,62.032604 152.109177,61.746010 
z"/>
<path fill="#1129AF" opacity="1.000000" stroke="none" 
	d="
M391.914978,68.603180 
	C387.234955,69.338638 382.687805,69.669449 377.694946,69.999886 
	C376.623566,66.407532 374.970306,69.103310 373.922150,69.560287 
	C366.237213,72.910995 359.319122,71.538177 355.316895,65.704308 
	C354.968719,65.196823 354.957916,64.457901 355.150146,63.437057 
	C360.380463,62.250546 365.251038,61.453461 370.518066,60.722412 
	C372.238495,60.749382 373.562408,60.710312 374.942780,61.056717 
	C376.363220,65.733856 378.968536,66.733711 383.247986,65.226151 
	C385.924652,64.283211 388.966797,64.377762 391.844971,64.006775 
	C391.912628,65.404030 391.980255,66.801292 391.914978,68.603180 
z"/>
<path fill="#1B6CDF" opacity="1.000000" stroke="none" 
	d="
M90.471687,42.171215 
	C84.556396,42.171215 78.641098,42.171215 72.675964,42.171215 
	C72.503983,36.152588 73.455353,34.230072 80.341301,33.128036 
	C85.589218,32.288158 91.100830,32.488224 96.431122,32.955669 
	C101.016899,33.357826 103.753166,36.445759 103.930984,41.570641 
	C103.388535,41.957096 103.203812,41.956646 103.000366,41.556561 
	C101.951729,40.439102 100.749199,38.953365 99.922417,39.139217 
	C96.707443,39.861900 93.611755,41.115299 90.471687,42.171215 
z"/>
<path fill="#0E29AE" opacity="1.000000" stroke="none" 
	d="
M26.889292,66.301109 
	C24.648556,63.764198 22.407822,61.227287 20.620861,58.346001 
	C24.521896,58.000114 27.982561,58.184349 31.412073,57.936886 
	C34.039589,57.747295 36.627769,57.012604 39.233448,56.520355 
	C43.006588,60.857811 47.934826,60.220585 52.740269,59.412598 
	C56.064938,58.853584 59.293514,57.723076 63.425011,56.617893 
	C62.785141,59.843372 62.288612,62.346306 61.257954,64.789482 
	C50.161896,64.500168 39.600327,64.226227 29.037230,64.140106 
	C28.327171,64.134315 27.605541,65.547760 26.889292,66.301109 
z"/>
<path fill="#134AC9" opacity="1.000000" stroke="none" 
	d="
M243.294296,53.004051 
	C243.650040,50.858963 244.005798,48.713875 245.018280,46.274696 
	C257.304352,45.332401 268.933655,44.684196 280.562988,44.035988 
	C280.322418,46.166077 280.081848,48.296165 279.726410,51.443302 
	C273.335724,51.443302 266.942383,51.443302 259.831116,51.666714 
	C253.840225,52.261433 248.567261,52.632744 243.294296,53.004051 
z"/>
<path fill="#1A5AD5" opacity="1.000000" stroke="none" 
	d="
M280.722778,43.621277 
	C268.933655,44.684196 257.304352,45.332401 245.223602,45.973583 
	C245.030121,44.186794 245.288040,42.407032 246.137421,40.301346 
	C252.032974,38.989292 257.337097,38.003159 262.641205,37.017021 
	C263.788422,37.770168 264.895416,39.087818 266.090271,39.173050 
	C270.036072,39.454514 274.020020,39.431549 277.977081,39.253601 
	C281.196198,39.108845 281.601624,40.650589 280.722778,43.621277 
z"/>
<path fill="#1827AB" opacity="1.000000" stroke="none" 
	d="
M415.979462,62.124313 
	C420.851837,61.700241 425.724243,61.276169 430.665833,60.846077 
	C431.879059,67.848282 430.123260,70.328888 422.748840,71.100220 
	C415.436188,71.865082 408.129364,72.517128 402.335999,66.118912 
	C406.979126,64.369148 411.479279,63.246731 415.979462,62.124313 
z"/>
<path fill="#0F22A6" opacity="1.000000" stroke="none" 
	d="
M27.066710,66.591690 
	C27.605541,65.547760 28.327171,64.134315 29.037230,64.140106 
	C39.600327,64.226227 50.161896,64.500168 60.995132,65.088623 
	C59.916908,66.974602 58.826683,69.408737 57.175541,69.880745 
	C46.879940,72.823997 36.698570,73.044678 27.066710,66.591690 
z"/>
<path fill="#1E8EF2" opacity="1.000000" stroke="none" 
	d="
M36.935356,16.822935 
	C47.842632,11.333679 59.044952,12.126525 70.644547,15.128337 
	C70.387703,16.707224 70.157280,18.123682 69.272484,19.807426 
	C59.596214,20.049454 50.569023,20.174604 41.557457,19.856718 
	C39.983044,19.801180 38.474384,17.881601 36.935356,16.822935 
z"/>
<path fill="#2292F2" opacity="1.000000" stroke="none" 
	d="
M288.825562,18.772980 
	C283.432281,19.386599 278.156525,20.099243 272.915466,19.900089 
	C265.544495,19.620007 258.199219,18.663298 250.422150,17.999939 
	C249.621964,15.369365 250.384781,14.034689 253.424881,14.067229 
	C265.228210,14.193573 277.033691,14.118664 289.375366,14.118664 
	C289.224152,15.695688 289.091370,17.080376 288.825562,18.772980 
z"/>
<path fill="#1049CA" opacity="1.000000" stroke="none" 
	d="
M211.125198,47.030804 
	C208.482330,55.427456 211.056381,53.485584 199.125153,54.718269 
	C190.627029,52.939026 182.844849,51.479374 175.062683,50.019726 
	C175.300323,48.880470 175.537964,47.741215 176.389267,46.303040 
	C180.748535,46.358124 184.494171,46.712120 188.471405,47.373756 
	C192.130310,47.109024 195.557602,46.536652 199.273865,46.262577 
	C203.416962,46.717518 207.271088,46.874161 211.125198,47.030804 
z"/>
<path fill="#1C45C6" opacity="1.000000" stroke="none" 
	d="
M435.537811,48.108231 
	C434.886230,52.156219 432.926331,54.449993 428.424469,54.628719 
	C423.019196,54.843304 417.638519,55.677231 411.741821,56.346848 
	C407.984283,52.099537 402.851044,54.405998 398.785736,52.932846 
	C398.897827,51.412643 399.009949,49.892441 399.768097,48.285736 
	C404.681183,51.407017 408.873627,50.223763 413.462006,47.976273 
	C416.005920,47.833202 418.135986,47.698463 420.684082,47.761627 
	C425.914001,48.009098 430.725922,48.058662 435.537811,48.108231 
z"/>
<path fill="#7038E5" opacity="1.000000" stroke="none" 
	d="
M560.991394,25.982113 
	C573.555176,21.619825 584.444824,25.171064 588.767700,35.577332 
	C586.144897,35.974087 583.979614,35.954788 581.815796,36.000057 
	C579.509644,36.048309 577.204773,36.157631 574.627319,36.129017 
	C573.526428,35.520103 572.697693,35.022465 571.872864,34.137741 
	C569.883362,32.534180 567.817688,31.419552 565.917786,30.071268 
	C564.182312,28.839678 562.626404,27.355160 560.991394,25.982113 
z"/>
<path fill="#175DDB" opacity="1.000000" stroke="none" 
	d="
M357.039062,44.008575 
	C358.719696,41.704937 360.400360,39.401302 362.876465,37.023487 
	C370.449951,36.628826 377.228027,36.308346 384.403900,36.040474 
	C388.816315,37.068233 392.830963,38.043381 396.845581,39.018524 
	C396.776581,39.871704 396.707581,40.724880 395.998627,41.807083 
	C390.742828,42.408096 386.127014,42.780087 381.257812,42.945358 
	C376.725067,39.322643 373.981140,42.722183 370.679565,44.764088 
	C368.951080,44.021404 367.520874,43.072117 366.103485,43.090839 
	C363.078491,43.130798 360.060150,43.672462 357.039062,44.008575 
z"/>
<path fill="#6531DF" opacity="1.000000" stroke="none" 
	d="
M560.618347,25.964405 
	C562.626404,27.355160 564.182312,28.839678 565.917786,30.071268 
	C567.817688,31.419552 569.883362,32.534180 571.452881,34.063522 
	C564.219543,32.990002 560.181152,36.697166 556.627136,41.954086 
	C552.462402,41.261177 548.682190,40.615879 544.902039,39.970589 
	C547.720459,32.783936 552.869568,28.147293 560.618347,25.964405 
z"/>
<path fill="#5A2CD5" opacity="1.000000" stroke="none" 
	d="
M533.987000,48.806976 
	C532.838257,49.641750 531.689514,50.476509 530.035095,51.657967 
	C525.926941,52.403603 522.324402,52.802547 518.721863,53.201492 
	C518.721863,53.201496 518.837646,53.165676 518.854004,52.848701 
	C517.270569,51.116268 515.834106,48.795853 514.037415,48.471542 
	C510.158997,47.771477 506.095581,48.096062 502.107849,48.001423 
	C502.439117,46.252846 502.770386,44.504269 503.590820,42.385262 
	C507.947357,42.348434 511.814758,42.682037 515.752686,43.439034 
	C519.147400,43.878586 522.471680,43.894753 526.145630,44.059227 
	C528.992554,45.740673 531.489746,47.273819 533.987000,48.806976 
z"/>
<path fill="#7038E5" opacity="1.000000" stroke="none" 
	d="
M464.972504,27.990364 
	C465.650269,27.075619 466.331635,25.364527 467.005280,25.367586 
	C474.975220,25.403772 482.953857,25.539665 490.905518,26.041075 
	C492.686951,26.153410 494.372833,27.781641 495.973206,29.398308 
	C494.605865,30.387766 493.328094,31.055305 492.137604,30.925110 
	C488.689026,30.547964 486.897705,32.230305 485.519043,35.148502 
	C482.427765,34.762089 479.725555,34.462036 476.988586,33.791763 
	C475.773285,32.192791 474.805573,30.403805 473.365936,29.856850 
	C470.714478,28.849476 467.785706,28.572012 464.972504,27.990364 
z"/>
<path fill="#1049CA" opacity="1.000000" stroke="none" 
	d="
M135.997284,50.993736 
	C136.218185,49.859596 136.439087,48.725452 137.266418,47.298126 
	C141.856949,47.006405 145.841049,47.007870 150.050232,47.348412 
	C153.180954,47.508301 156.086609,47.329113 159.088104,47.515121 
	C161.461014,48.070560 163.856995,48.790005 165.983856,48.311985 
	C168.432358,47.761677 170.642990,46.152927 172.956924,45.003868 
	C169.948196,55.554352 172.140457,53.390083 160.159927,54.745319 
	C154.916031,53.618534 150.356674,52.723389 145.766739,52.030807 
	C142.531754,51.542667 139.255249,51.329613 135.997284,50.993736 
z"/>
<path fill="#5329CF" opacity="1.000000" stroke="none" 
	d="
M460.825134,51.572403 
	C460.905029,50.615013 460.984924,49.657627 461.546936,48.346096 
	C466.377716,47.651100 470.726440,47.310246 475.466370,46.991516 
	C477.796783,46.620598 479.735992,46.227551 481.979736,46.021385 
	C484.205902,48.513596 486.127441,50.818924 488.049011,53.124256 
	C483.395630,53.785393 478.742249,54.446526 473.215820,55.069046 
	C468.503571,53.877754 464.664337,52.725079 460.825134,51.572403 
z"/>
<path fill="#4124BB" opacity="1.000000" stroke="none" 
	d="
M523.665649,69.162331 
	C522.447571,65.363754 521.229492,61.565186 520.450073,57.381828 
	C524.665588,56.966373 528.442322,56.935696 532.219116,56.905018 
	C533.800842,60.683758 535.382568,64.462502 536.712341,68.640060 
	C535.623291,69.552750 534.786072,70.066628 533.948914,70.580505 
	C532.584595,70.639313 531.220215,70.698128 529.312622,70.344475 
	C527.068054,69.675453 525.366882,69.418892 523.665649,69.162331 
z"/>
<path fill="#6430DB" opacity="1.000000" stroke="none" 
	d="
M534.326904,48.800217 
	C531.489746,47.273819 528.992554,45.740673 526.329712,43.734909 
	C526.717224,40.856647 527.270386,38.451004 527.823486,36.045364 
	C531.559753,34.698956 535.295959,33.352551 539.443726,32.010563 
	C542.489380,38.930347 540.995544,43.761028 534.326904,48.800217 
z"/>
<path fill="#4A29CB" opacity="1.000000" stroke="none" 
	d="
M452.638672,55.021965 
	C447.226654,55.020607 442.277283,55.020607 436.828217,55.020607 
	C437.634125,51.734482 438.326691,48.910610 439.110870,45.713078 
	C442.184967,45.713078 445.134888,45.713078 448.084778,45.713078 
	C451.021393,45.713078 453.957977,45.713078 457.873016,45.713078 
	C455.293213,49.023914 458.326599,53.803204 452.638672,55.021965 
z"/>
<path fill="#1C6DE1" opacity="1.000000" stroke="none" 
	d="
M180.584457,38.790276 
	C188.375275,31.163723 199.748474,29.680683 207.785538,35.575321 
	C205.146820,36.324150 202.617783,36.370461 200.385651,37.208004 
	C198.727219,37.830273 197.453812,39.478714 195.655838,40.761665 
	C193.542114,41.903362 191.781464,42.953476 189.712219,43.852612 
	C186.463898,42.064514 183.524185,40.427395 180.584457,38.790276 
z"/>
<path fill="#1883EC" opacity="1.000000" stroke="none" 
	d="
M36.585419,16.873207 
	C38.474384,17.881601 39.983044,19.801180 41.557457,19.856718 
	C50.569023,20.174604 59.596214,20.049454 69.124527,20.118351 
	C69.016418,22.294300 68.401886,24.426611 67.772003,26.612215 
	C61.940357,26.132200 56.045979,25.647022 49.304970,25.069904 
	C42.449818,23.558025 36.441303,22.138088 30.432787,20.718151 
	C32.367020,19.453262 34.301254,18.188372 36.585419,16.873207 
z"/>
<path fill="#1961DB" opacity="1.000000" stroke="none" 
	d="
M287.831329,39.943314 
	C289.666321,38.341026 291.501343,36.738743 293.861877,35.407063 
	C296.244873,36.117462 298.113983,36.973175 299.957703,36.921638 
	C306.328186,36.743557 312.689880,36.249317 319.054901,35.875443 
	C320.368195,37.685123 321.681458,39.494808 322.547668,41.652283 
	C317.930817,42.703804 313.761017,43.407532 309.357086,43.890053 
	C306.338806,39.493050 303.146698,42.088173 299.968506,42.737694 
	C295.869324,41.549988 291.850311,40.746651 287.831329,39.943314 
z"/>
<path fill="#662FDD" opacity="1.000000" stroke="none" 
	d="
M485.908081,35.234867 
	C486.897705,32.230305 488.689026,30.547964 492.137604,30.925110 
	C493.328094,31.055305 494.605865,30.387766 496.100098,29.711281 
	C501.379486,34.360008 500.224091,39.932030 497.160522,45.801384 
	C493.302338,44.644806 490.089081,43.303333 486.892456,41.561687 
	C486.575378,39.185966 486.241730,37.210419 485.908081,35.234867 
z"/>
<path fill="#1C6DE1" opacity="1.000000" stroke="none" 
	d="
M330.081177,39.996880 
	C330.428070,37.781708 330.774963,35.566532 331.218292,32.735500 
	C335.819458,34.559109 341.376129,30.235142 344.832397,36.480751 
	C347.708923,32.493904 351.642944,31.907621 356.228729,34.772896 
	C355.846466,36.769642 355.404816,39.076454 354.498413,41.642220 
	C349.229187,39.745171 344.559967,37.343620 338.912750,38.915462 
	C336.087463,39.701847 333.032349,39.662666 330.081177,39.996880 
z"/>
<path fill="#6431DE" opacity="1.000000" stroke="none" 
	d="
M464.733032,28.300457 
	C467.785706,28.572012 470.714478,28.849476 473.365936,29.856850 
	C474.805573,30.403805 475.773285,32.192791 476.748169,34.067978 
	C475.876434,37.809921 475.210358,40.905430 474.199219,43.993271 
	C470.187317,42.643005 466.520538,41.300407 462.853729,39.957813 
	C463.400360,36.175392 463.946991,32.392967 464.733032,28.300457 
z"/>
<path fill="#1D64E1" opacity="1.000000" stroke="none" 
	d="
M404.779266,39.410912 
	C411.675934,31.939745 420.075714,30.429728 429.702271,33.734760 
	C427.241638,36.471680 424.624939,38.639679 421.622314,40.824394 
	C419.536255,41.239899 417.836090,41.638695 415.788025,41.874489 
	C412.979340,41.183922 410.518219,40.657772 408.057892,40.128132 
	C406.964203,39.892696 405.872101,39.650204 404.779266,39.410912 
z"/>
<path fill="#175AD6" opacity="1.000000" stroke="none" 
	d="
M329.969116,40.372025 
	C333.032349,39.662666 336.087463,39.701847 338.912750,38.915462 
	C344.559967,37.343620 349.229187,39.745171 354.381439,41.954376 
	C353.866028,42.943638 353.160492,44.345970 352.101837,44.703918 
	C350.601959,45.211033 348.841705,44.948097 346.290680,45.031773 
	C339.925323,45.696877 334.462006,46.344482 328.998718,46.992088 
	C329.284821,44.910446 329.570923,42.828804 329.969116,40.372025 
z"/>
<path fill="#1752CD" opacity="1.000000" stroke="none" 
	d="
M103.019089,41.956200 
	C103.203812,41.956646 103.388535,41.957096 103.850342,41.953625 
	C104.056168,44.149475 103.984917,46.349247 103.272354,48.811966 
	C97.701050,49.043720 92.386330,48.052219 89.527557,54.048149 
	C86.759514,54.291416 84.382927,54.654385 81.966530,54.662117 
	C80.570404,52.401356 79.214073,50.495827 77.857742,48.590302 
	C81.992210,47.824409 86.126678,47.058521 91.051392,46.147842 
	C95.567459,44.654102 99.293274,43.305153 103.019089,41.956200 
z"/>
<path fill="#4526BE" opacity="1.000000" stroke="none" 
	d="
M513.659363,54.137009 
	C513.090393,57.489765 512.521423,60.842525 511.402954,64.593178 
	C506.989655,64.729912 503.125854,64.468758 499.262054,64.207603 
	C499.842041,61.074734 500.422028,57.941860 501.541473,54.410156 
	C505.940399,54.053223 509.799896,54.095116 513.659363,54.137009 
z"/>
<path fill="#1365DE" opacity="1.000000" stroke="none" 
	d="
M111.203011,42.009571 
	C111.441422,40.579941 111.679825,39.150307 112.473648,37.356709 
	C117.027351,36.994102 121.025635,36.995468 125.181137,37.167152 
	C125.578651,36.886639 125.818954,36.435802 126.028961,35.985420 
	C125.998650,35.985870 126.018433,36.042915 126.018433,36.042915 
	C126.755608,35.624084 127.492783,35.205250 128.696442,35.026428 
	C131.749802,36.507118 134.336670,37.747795 136.923523,38.988472 
	C136.642609,40.430145 136.361694,41.871815 135.578674,43.606625 
	C129.854279,42.934093 124.661667,41.703545 119.397263,41.113609 
	C116.732773,40.815022 113.938568,41.673969 111.203011,42.009571 
z"/>
<path fill="#6634DD" opacity="1.000000" stroke="none" 
	d="
M515.682251,43.015640 
	C511.814758,42.682037 507.947357,42.348434 503.709229,42.018547 
	C503.850800,38.933872 504.363098,35.845482 505.003204,32.383537 
	C509.013214,32.606483 512.895447,33.202984 516.712891,34.417885 
	C516.326172,37.696075 516.004211,40.355858 515.682251,43.015640 
z"/>
<path fill="#1B71E5" opacity="1.000000" stroke="none" 
	d="
M144.158188,37.045025 
	C151.907684,30.810087 161.829910,30.160885 169.433380,35.863277 
	C166.946152,36.570286 164.556961,36.407948 162.466293,37.120911 
	C160.483688,37.797024 158.813782,39.390118 156.654404,40.699570 
	C155.579193,40.992283 154.855957,41.165394 154.058807,40.957611 
	C150.709335,39.399490 147.433762,38.222256 144.158188,37.045025 
z"/>
<path fill="#182CAD" opacity="1.000000" stroke="none" 
	d="
M226.168304,61.037327 
	C225.705978,64.107803 225.243668,67.178284 224.739197,70.528648 
	C220.193848,70.528648 215.827011,70.528648 210.826508,70.528648 
	C211.210938,68.146614 211.564377,65.956612 212.426727,63.438400 
	C217.346527,62.419239 221.757431,61.728283 226.168304,61.037327 
z"/>
<path fill="#1628AB" opacity="1.000000" stroke="none" 
	d="
M339.551147,63.013443 
	C339.263672,65.458900 338.976166,67.904358 338.661316,70.582443 
	C333.924225,70.582443 329.503540,70.582443 324.530212,70.582443 
	C325.003998,67.871803 325.450867,65.315094 326.383575,62.565601 
	C331.096649,62.586361 335.323914,62.799900 339.551147,63.013443 
z"/>
<path fill="#125AD6" opacity="1.000000" stroke="none" 
	d="
M215.837540,44.955917 
	C215.940552,43.789276 216.043579,42.622639 216.736069,41.178883 
	C221.215607,39.951164 225.105667,39.000565 229.320404,38.066612 
	C230.077011,38.116974 230.508942,38.150688 231.216980,38.414154 
	C234.695770,39.437366 237.898453,40.230831 241.101120,41.024296 
	C240.560425,42.278763 240.019745,43.533230 239.492432,44.756660 
	C237.446533,44.855152 235.424744,44.952480 232.549927,45.039230 
	C226.410431,45.004410 221.123993,44.980164 215.837540,44.955917 
z"/>
<path fill="#1559D3" opacity="1.000000" stroke="none" 
	d="
M111.087059,42.357147 
	C113.938568,41.673969 116.732773,40.815022 119.397263,41.113609 
	C124.661667,41.703545 129.854279,42.934093 135.447174,43.953205 
	C132.611481,44.925636 129.405197,45.844620 125.382233,46.914818 
	C119.828552,47.047665 115.091568,47.029305 110.354591,47.010941 
	C110.560097,45.575535 110.765602,44.140125 111.087059,42.357147 
z"/>
<path fill="#1747C1" opacity="1.000000" stroke="none" 
	d="
M135.820679,51.329823 
	C139.255249,51.329613 142.531754,51.542667 145.766739,52.030807 
	C150.356674,52.723389 154.916031,53.618534 159.739899,54.699417 
	C156.314072,55.696819 152.636826,56.421921 148.503662,57.512222 
	C143.821686,57.590343 139.595627,57.303265 135.369568,57.016182 
	C135.461060,55.232761 135.552567,53.449333 135.820679,51.329823 
z"/>
<path fill="#502ACB" opacity="1.000000" stroke="none" 
	d="
M555.503662,56.489853 
	C551.315247,56.325733 547.126831,56.161610 542.490723,56.000854 
	C542.099792,53.189964 542.156555,50.375698 542.846741,47.246964 
	C547.312073,47.622879 551.144043,48.313274 555.028748,49.425529 
	C555.222229,52.061546 555.362976,54.275700 555.503662,56.489853 
z"/>
<path fill="#4E27C5" opacity="1.000000" stroke="none" 
	d="
M585.013916,60.091217 
	C581.077820,59.188438 577.380127,58.077065 573.341675,56.608143 
	C574.014954,54.168247 575.029114,52.085896 576.490845,50.002266 
	C580.974304,50.333866 585.010193,50.666752 589.046021,50.999641 
	C587.781494,53.960640 586.516907,56.921635 585.013916,60.091217 
z"/>
<path fill="#166EE3" opacity="1.000000" stroke="none" 
	d="
M248.044662,26.402933 
	C253.291977,26.029510 258.455597,26.052607 264.135529,26.120808 
	C264.279968,28.247034 263.908142,30.328159 263.017181,32.523010 
	C261.259033,32.284092 259.952667,31.485044 258.793243,31.659992 
	C254.845520,32.255669 250.949631,33.194767 247.033951,34.002762 
	C247.342957,31.601658 247.651962,29.200556 248.044662,26.402933 
z"/>
<path fill="#1340C0" opacity="1.000000" stroke="none" 
	d="
M394.363983,53.124046 
	C394.164185,54.911575 393.964386,56.699104 393.077698,58.764271 
	C390.451050,59.244080 388.498901,59.689930 386.574524,59.591705 
	C383.638580,59.441856 380.721802,58.915844 377.890076,58.242435 
	C378.882812,56.250713 379.782349,54.566109 381.123596,52.912479 
	C385.831543,53.003654 390.097778,53.063850 394.363983,53.124046 
z"/>
<path fill="#1B6DE3" opacity="1.000000" stroke="none" 
	d="
M318.851013,35.591541 
	C312.689880,36.249317 306.328186,36.743557 299.957703,36.921638 
	C298.113983,36.973175 296.244873,36.117462 294.190125,35.331882 
	C302.266632,30.821037 310.492889,30.303518 318.851013,35.591541 
z"/>
<path fill="#1042C3" opacity="1.000000" stroke="none" 
	d="
M353.959290,56.996670 
	C354.334412,53.900837 354.709564,50.805004 355.548981,47.791256 
	C360.344360,48.249737 364.675476,48.626137 368.877869,49.386765 
	C368.493561,52.182339 368.237946,54.593685 367.577850,56.951012 
	C362.768677,56.930214 358.363983,56.963444 353.959290,56.996670 
z"/>
<path fill="#4124BB" opacity="1.000000" stroke="none" 
	d="
M471.197937,62.053040 
	C471.089081,63.425766 470.980225,64.798492 470.388733,66.684280 
	C465.523163,70.414986 459.475372,69.806885 458.004944,66.000679 
	C458.354828,63.920544 458.704712,61.840408 459.563965,59.386383 
	C463.781525,60.026012 467.489716,61.039524 471.197937,62.053040 
z"/>
<path fill="#113EC0" opacity="1.000000" stroke="none" 
	d="
M296.812561,58.014076 
	C292.477386,58.338814 288.142181,58.663548 283.341431,58.984383 
	C282.778961,56.853626 282.682098,54.726761 283.197571,52.286804 
	C288.163635,51.652214 292.517334,51.330723 296.903137,51.448055 
	C296.894318,53.929276 296.853424,55.971676 296.812561,58.014076 
z"/>
<path fill="#0E26AD" opacity="1.000000" stroke="none" 
	d="
M257.050415,68.597878 
	C251.725861,68.632790 246.539566,68.264816 240.845398,67.835701 
	C240.337540,67.774559 240.276993,67.393959 240.692139,67.138222 
	C241.084763,66.258781 241.062256,65.635078 241.039764,65.011375 
	C241.111908,64.142754 241.184067,63.274136 241.916275,62.169701 
	C247.824707,61.647972 253.073074,61.362064 258.321442,61.076149 
	C257.943848,63.449097 257.566284,65.822044 257.050415,68.597878 
z"/>
<path fill="#175CD4" opacity="1.000000" stroke="none" 
	d="
M19.769146,37.897102 
	C20.238686,36.373524 20.708225,34.849941 21.912964,33.131950 
	C27.754271,33.622265 32.860382,34.306995 37.966496,34.991726 
	C37.545631,36.526737 37.124767,38.061752 36.025200,39.805374 
	C30.154047,39.308357 24.961596,38.602730 19.769146,37.897102 
z"/>
<path fill="#1628AB" opacity="1.000000" stroke="none" 
	d="
M121.242798,62.037338 
	C120.858894,64.807434 120.474983,67.577530 120.060112,70.571075 
	C115.262245,70.571075 110.831390,70.571075 105.844833,70.571075 
	C106.170074,68.872749 106.470078,67.306229 107.336761,65.369980 
	C112.349884,64.012611 116.796341,63.024975 121.242798,62.037338 
z"/>
<path fill="#5D2ED6" opacity="1.000000" stroke="none" 
	d="
M554.975952,49.003658 
	C551.144043,48.313274 547.312073,47.622879 543.046875,46.890270 
	C543.188416,44.707146 543.763184,42.566238 544.619995,40.197960 
	C548.682190,40.615879 552.462402,41.261177 556.616394,42.321339 
	C556.318787,44.825356 555.647339,46.914501 554.975952,49.003658 
z"/>
<path fill="#104ECC" opacity="1.000000" stroke="none" 
	d="
M19.462086,38.147842 
	C24.961596,38.602730 30.154047,39.308357 35.781845,40.043526 
	C36.114815,41.132305 36.012436,42.191544 35.380035,43.642353 
	C29.543261,44.015366 24.236506,43.996811 18.929749,43.978256 
	C19.004841,42.118366 19.079931,40.258472 19.462086,38.147842 
z"/>
<path fill="#5D2ED6" opacity="1.000000" stroke="none" 
	d="
M486.875854,41.961857 
	C490.089081,43.303333 493.302338,44.644806 496.888855,46.040424 
	C494.436798,48.416458 491.611481,50.738354 488.417603,53.092255 
	C486.127441,50.818924 484.205902,48.513596 482.232361,45.795692 
	C483.745544,44.242695 485.310699,43.102272 486.875854,41.961857 
z"/>
<path fill="#134AC9" opacity="1.000000" stroke="none" 
	d="
M296.871063,51.009232 
	C292.517334,51.330723 288.163635,51.652214 283.344971,51.958828 
	C283.314911,49.737751 283.749786,47.531559 284.843445,45.259987 
	C289.817566,45.508884 294.132904,45.823158 298.328979,46.483871 
	C297.763489,48.223286 297.317291,49.616257 296.871063,51.009232 
z"/>
<path fill="#1135B8" opacity="1.000000" stroke="none" 
	d="
M81.436874,62.731373 
	C76.586868,61.857994 71.736862,60.984612 66.500259,60.059631 
	C66.495804,58.447601 66.877937,56.887165 67.938538,55.140030 
	C72.582169,54.039566 77.062141,50.923843 79.256989,57.790840 
	C79.962738,59.666088 80.699806,61.198730 81.436874,62.731373 
z"/>
<path fill="#1663DC" opacity="1.000000" stroke="none" 
	d="
M246.835297,34.330505 
	C250.949631,33.194767 254.845520,32.255669 258.793243,31.659992 
	C259.952667,31.485044 261.259033,32.284092 262.797668,32.842834 
	C263.031494,34.117306 262.965729,35.185680 262.770569,36.635536 
	C257.337097,38.003159 252.032974,38.989292 246.329361,39.974461 
	C246.165451,38.201748 246.401047,36.429996 246.835297,34.330505 
z"/>
<path fill="#1958D8" opacity="1.000000" stroke="none" 
	d="
M422.008209,40.807671 
	C424.624939,38.639679 427.241638,36.471680 430.006714,33.964775 
	C434.533722,34.850151 435.257446,38.567291 435.614502,42.582619 
	C431.461487,43.611771 427.729431,44.305737 423.960083,44.647644 
	C423.284637,43.132946 422.646423,41.970306 422.008209,40.807671 
z"/>
<path fill="#164ECB" opacity="1.000000" stroke="none" 
	d="
M215.635849,45.263489 
	C221.123993,44.980164 226.410431,45.004410 232.144379,45.102257 
	C231.321274,46.989288 230.050659,48.802719 228.142670,50.797462 
	C223.329178,50.649967 219.153061,50.321156 214.976944,49.992340 
	C215.129349,48.518581 215.281754,47.044819 215.635849,45.263489 
z"/>
<path fill="#164ECB" opacity="1.000000" stroke="none" 
	d="
M328.804535,47.306213 
	C334.462006,46.344482 339.925323,45.696877 345.867065,45.082676 
	C345.064789,46.927814 343.784088,48.739548 341.807434,50.774601 
	C336.748901,51.332237 332.386322,51.666557 328.023712,52.000877 
	C328.219269,50.540695 328.414825,49.080513 328.804535,47.306213 
z"/>
<path fill="#502ACB" opacity="1.000000" stroke="none" 
	d="
M513.885376,53.886169 
	C509.799896,54.095116 505.940399,54.053223 501.670410,54.013252 
	C501.468414,52.255028 501.676971,50.494884 501.996704,48.368080 
	C506.095581,48.096062 510.158997,47.771477 514.037415,48.471542 
	C515.834106,48.795853 517.270569,51.116268 518.836670,52.906807 
	C517.239197,53.399700 515.675293,53.517517 513.885376,53.886169 
z"/>
<path fill="#1340C0" opacity="1.000000" stroke="none" 
	d="
M174.875732,50.337799 
	C182.844849,51.479374 190.627029,52.939026 198.697815,54.687904 
	C195.146790,55.411518 191.307175,55.845909 186.814316,56.633400 
	C182.142303,56.332508 178.123535,55.678513 174.104767,55.024521 
	C174.299438,53.568306 174.494110,52.112091 174.875732,50.337799 
z"/>
<path fill="#1131B6" opacity="1.000000" stroke="none" 
	d="
M377.796906,58.549557 
	C380.721802,58.915844 383.638580,59.441856 386.574524,59.591705 
	C388.498901,59.689930 390.451050,59.244080 392.849762,59.070431 
	C392.875946,60.488907 392.443146,61.878860 391.927673,63.637794 
	C388.966797,64.377762 385.924652,64.283211 383.247986,65.226151 
	C378.968536,66.733711 376.363220,65.733856 375.135437,60.823174 
	C376.113434,59.652630 376.955170,59.101097 377.796906,58.549557 
z"/>
<path fill="#102DB1" opacity="1.000000" stroke="none" 
	d="
M174.013947,55.436584 
	C178.123535,55.678513 182.142303,56.332508 186.582489,56.988174 
	C187.948120,58.361668 188.892334,59.733494 189.996735,61.375343 
	C188.197006,61.964088 186.247406,62.414143 184.274612,62.569664 
	C181.556747,62.783916 178.821365,62.775650 175.714111,62.932335 
	C174.864227,60.617527 174.393677,58.233086 174.013947,55.436584 
z"/>
<path fill="#4A28C3" opacity="1.000000" stroke="none" 
	d="
M471.421997,61.771503 
	C467.489716,61.039524 463.781525,60.026012 459.695312,59.012581 
	C459.670563,56.747093 460.023804,54.481522 460.601105,51.894176 
	C464.664337,52.725079 468.503571,53.877754 472.766296,55.048664 
	C472.675232,57.207920 472.160675,59.348946 471.421997,61.771503 
z"/>
<path fill="#1135B8" opacity="1.000000" stroke="none" 
	d="
M353.867767,57.388153 
	C358.363983,56.963444 362.768677,56.930214 367.718384,57.221943 
	C368.882812,58.583393 369.502197,59.619881 370.121582,60.656372 
	C365.251038,61.453461 360.380463,62.250546 355.055481,63.077255 
	C354.326080,61.331127 354.051178,59.555382 353.867767,57.388153 
z"/>
<path fill="#113EC0" opacity="1.000000" stroke="none" 
	d="
M214.734695,50.310097 
	C219.153061,50.321156 223.329178,50.649967 227.931274,51.048149 
	C228.216415,52.263611 228.075577,53.409698 227.347565,54.844093 
	C222.290237,56.033993 217.820084,56.935577 213.349915,57.837166 
	C213.730759,55.434059 214.111603,53.030952 214.734695,50.310097 
z"/>
<path fill="#1932B6" opacity="1.000000" stroke="none" 
	d="
M415.695465,61.977997 
	C411.479279,63.246731 406.979126,64.369148 402.212646,65.791489 
	C400.894073,63.987434 399.841797,61.883446 399.268066,59.396172 
	C403.835205,59.005974 407.923767,58.999058 412.012329,58.992146 
	C413.145355,59.938660 414.278412,60.885166 415.695465,61.977997 
z"/>
<path fill="#164ECB" opacity="1.000000" stroke="none" 
	d="
M394.555603,52.817867 
	C390.097778,53.063850 385.831543,53.003654 381.169006,52.536110 
	C381.182709,50.418320 381.592682,48.707874 382.422180,46.987789 
	C387.161102,46.653969 391.480530,46.329792 395.799927,46.005615 
	C395.449036,48.174309 395.098145,50.342999 394.555603,52.817867 
z"/>
<path fill="#4A32BD" opacity="1.000000" stroke="none" 
	d="
M499.137390,64.514252 
	C503.125854,64.468758 506.989655,64.729912 511.265320,64.985947 
	C511.428772,66.742897 511.180359,68.504982 510.899933,70.494125 
	C506.607941,70.494125 502.556610,70.494125 497.872528,70.494125 
	C498.273010,68.501587 498.642883,66.661247 499.137390,64.514252 
z"/>
<path fill="#1135B8" opacity="1.000000" stroke="none" 
	d="
M318.853180,63.029671 
	C313.853973,62.788731 309.107910,62.358719 304.121521,61.568169 
	C305.154266,60.131462 306.427338,59.055286 308.132812,57.984642 
	C313.080414,57.671009 317.595642,57.351852 322.110840,57.032692 
	C321.109314,58.968658 320.107819,60.904629 318.853180,63.029671 
z"/>
<path fill="#0F35B6" opacity="1.000000" stroke="none" 
	d="
M39.103100,56.243332 
	C36.627769,57.012604 34.039589,57.747295 31.412073,57.936886 
	C27.982561,58.184349 24.521896,58.000114 20.616575,58.004944 
	C20.025940,57.352364 19.893366,56.696457 20.146652,55.594189 
	C25.777353,54.065807 31.022196,52.983791 36.267036,51.901779 
	C37.168941,53.256618 38.070847,54.611465 39.103100,56.243332 
z"/>
<path fill="#1340C0" opacity="1.000000" stroke="none" 
	d="
M123.179123,52.049393 
	C122.957169,53.511887 122.735207,54.974384 121.856812,56.721077 
	C116.877350,57.671700 112.554314,58.338131 108.231277,59.004562 
	C108.525307,56.822811 108.819344,54.641064 109.759949,52.182953 
	C114.664062,51.954193 118.921600,52.001793 123.179123,52.049393 
z"/>
<path fill="#102DB1" opacity="1.000000" stroke="none" 
	d="
M108.119873,59.373768 
	C112.554314,58.338131 116.877350,57.671700 121.631439,57.012764 
	C121.927292,58.441414 121.792076,59.862564 121.449829,61.660530 
	C116.796341,63.024975 112.349884,64.012611 107.481079,65.000336 
	C107.375305,63.247932 107.691887,61.495453 108.119873,59.373768 
z"/>
<path fill="#1131B6" opacity="1.000000" stroke="none" 
	d="
M213.225494,58.143284 
	C217.820084,56.935577 222.290237,56.033993 227.188202,55.152096 
	C227.278061,56.921810 226.940079,58.671837 226.385223,60.729595 
	C221.757431,61.728283 217.346527,62.419239 212.565918,63.055313 
	C212.497818,61.483421 212.799438,59.966415 213.225494,58.143284 
z"/>
<path fill="#113EC0" opacity="1.000000" stroke="none" 
	d="
M243.159485,53.395760 
	C248.567261,52.632744 253.840225,52.261433 259.513306,51.947136 
	C259.770966,53.141609 259.628571,54.279072 258.837616,55.707012 
	C252.883575,56.613045 247.578064,57.228603 242.272552,57.844162 
	C242.523254,56.491928 242.773972,55.139694 243.159485,53.395760 
z"/>
<path fill="#1B6DE3" opacity="1.000000" stroke="none" 
	d="
M384.006104,35.987862 
	C377.228027,36.308346 370.449951,36.628826 363.183105,36.913685 
	C369.614288,30.961813 375.788269,30.217850 383.775757,34.900848 
	C384.012177,35.619339 384.009125,35.803604 384.006104,35.987862 
z"/>
<path fill="#1131B6" opacity="1.000000" stroke="none" 
	d="
M339.703156,62.655216 
	C335.323914,62.799900 331.096649,62.586361 326.503967,62.198303 
	C326.282257,60.875050 326.425964,59.726315 327.176239,58.277115 
	C332.112549,57.653816 336.442230,57.330982 340.771942,57.008148 
	C340.466339,58.771095 340.160767,60.534046 339.703156,62.655216 
z"/>
<path fill="#1547C4" opacity="1.000000" stroke="none" 
	d="
M89.918999,54.167850 
	C92.386330,48.052219 97.701050,49.043720 103.109863,49.117081 
	C103.302032,50.926060 103.015366,52.692875 102.105812,54.785812 
	C97.424919,55.641300 93.366913,56.170662 89.309753,56.370880 
	C89.513397,55.417110 89.716202,54.792480 89.918999,54.167850 
z"/>
<path fill="#5D2ED6" opacity="1.000000" stroke="none" 
	d="
M462.623596,40.248337 
	C466.520538,41.300407 470.187317,42.643005 474.225586,44.374992 
	C474.756409,45.499386 474.915802,46.234390 475.075165,46.969391 
	C470.726440,47.310246 466.377716,47.651100 461.661316,48.002808 
	C461.660217,45.522068 462.026825,43.030464 462.623596,40.248337 
z"/>
<path fill="#1135B8" opacity="1.000000" stroke="none" 
	d="
M242.140991,58.158092 
	C247.578064,57.228603 252.883575,56.613045 258.647797,55.997234 
	C258.988770,57.487984 258.871063,58.978985 258.537415,60.773071 
	C253.073074,61.362064 247.824707,61.647972 242.097992,61.894936 
	C241.749557,60.727997 241.879501,59.600006 242.140991,58.158092 
z"/>
<path fill="#1C81EC" opacity="1.000000" stroke="none" 
	d="
M30.156353,20.863094 
	C36.441303,22.138088 42.449818,23.558025 48.863560,25.041386 
	C47.527466,26.066769 45.786148,27.028727 43.337578,27.918449 
	C36.967377,27.180779 31.304426,26.515345 25.641476,25.849911 
	C27.054289,24.235952 28.467104,22.621994 30.156353,20.863094 
z"/>
<path fill="#1B6DE3" opacity="1.000000" stroke="none" 
	d="
M241.356354,40.746597 
	C237.898453,40.230831 234.695770,39.437366 231.259369,38.174492 
	C231.025650,37.705086 231.057571,37.223064 231.057571,37.223064 
	C233.983948,33.099766 237.844254,31.542292 243.342346,32.735714 
	C242.718002,35.525288 242.164795,37.997093 241.356354,40.746597 
z"/>
<path fill="#0F3BBC" opacity="1.000000" stroke="none" 
	d="
M36.234322,51.508175 
	C31.022196,52.983791 25.777353,54.065807 20.123291,55.260048 
	C19.714073,55.372276 19.745350,55.343945 19.757114,55.076309 
	C19.696823,54.467270 19.509668,54.209476 19.207415,54.035290 
	C19.047197,52.977089 18.886982,51.918892 19.169678,50.295845 
	C24.937744,49.163300 30.262897,48.595604 35.588051,48.027908 
	C35.792572,49.056793 35.997089,50.085682 36.234322,51.508175 
z"/>
<path fill="#1131B6" opacity="1.000000" stroke="none" 
	d="
M135.299530,57.367043 
	C139.595627,57.303265 143.821686,57.590343 148.447830,57.941151 
	C149.822784,59.075695 150.797668,60.146511 151.940857,61.481667 
	C150.168457,62.032604 148.235703,62.464073 146.285110,62.571426 
	C143.444519,62.727760 140.591064,62.650761 137.371246,62.837059 
	C136.409454,61.239880 135.819489,59.478893 135.299530,57.367043 
z"/>
<path fill="#1752CD" opacity="1.000000" stroke="none" 
	d="
M369.006592,49.002537 
	C364.675476,48.626137 360.344360,48.249737 355.787903,47.441994 
	C355.919495,46.144188 356.276398,45.277725 356.836182,44.209919 
	C360.060150,43.672462 363.078491,43.130798 366.103485,43.090839 
	C367.520874,43.072117 368.951080,44.021404 370.600220,45.075996 
	C370.218842,46.747520 369.612732,47.875031 369.006592,49.002537 
z"/>
<path fill="#113EC0" opacity="1.000000" stroke="none" 
	d="
M340.902954,56.644173 
	C336.442230,57.330982 332.112549,57.653816 327.372681,57.984596 
	C327.224945,56.231747 327.487335,54.470951 327.886719,52.355518 
	C332.386322,51.666557 336.748901,51.332237 341.559326,50.999378 
	C341.682739,52.760624 341.358337,54.520412 340.902954,56.644173 
z"/>
<path fill="#1365DE" opacity="1.000000" stroke="none" 
	d="
M157.006363,40.579964 
	C158.813782,39.390118 160.483688,37.797024 162.466293,37.120911 
	C164.556961,36.407948 166.946152,36.570286 169.574432,36.188171 
	C170.643951,37.120602 171.343979,38.215069 171.721527,39.786789 
	C167.988098,41.512455 164.577164,42.760876 161.063416,43.657402 
	C159.642532,42.396992 158.324448,41.488480 157.006363,40.579964 
z"/>
<path fill="#6531DF" opacity="1.000000" stroke="none" 
	d="
M574.899353,36.240288 
	C577.204773,36.157631 579.509644,36.048309 581.815796,36.000057 
	C583.979614,35.954788 586.144897,35.974087 588.783325,35.942055 
	C589.552734,37.028957 589.848206,38.138779 589.732666,39.769966 
	C585.121826,40.553837 580.922058,40.816338 576.459534,40.870800 
	C575.764282,39.188602 575.331848,37.714447 574.899353,36.240288 
z"/>
<path fill="#1547C4" opacity="1.000000" stroke="none" 
	d="
M35.667656,47.630802 
	C30.262897,48.595604 24.937744,49.163300 19.219786,49.895454 
	C18.749722,48.237915 18.672462,46.415916 18.762476,44.286087 
	C24.236506,43.996811 29.543261,44.015366 35.248386,44.019470 
	C35.680256,45.081249 35.713757,46.157471 35.667656,47.630802 
z"/>
<path fill="#6132D7" opacity="1.000000" stroke="none" 
	d="
M576.722290,41.078842 
	C580.922058,40.816338 585.121826,40.553837 589.711243,40.124420 
	C590.129333,42.079464 590.157837,44.201420 589.641235,46.651058 
	C585.076843,46.320042 581.057495,45.661339 576.983154,44.612072 
	C576.859497,43.173954 576.790894,42.126396 576.722290,41.078842 
z"/>
<path fill="#1355D3" opacity="1.000000" stroke="none" 
	d="
M309.591248,44.111259 
	C313.761017,43.407532 317.930817,42.703804 322.544800,42.001690 
	C323.011841,43.019138 323.034698,44.034969 322.966034,45.846725 
	C318.639343,47.096367 314.404175,47.550087 310.096924,47.615467 
	C309.880341,46.188503 309.735779,45.149883 309.591248,44.111259 
z"/>
<path fill="#134AC9" opacity="1.000000" stroke="none" 
	d="
M123.408936,51.799126 
	C118.921600,52.001793 114.664062,51.954193 109.902008,51.851616 
	C109.624138,50.457466 109.850784,49.118294 110.216011,47.395031 
	C115.091568,47.029305 119.828552,47.047665 125.071106,47.103722 
	C124.930710,48.610561 124.284729,50.079708 123.408936,51.799126 
z"/>
<path fill="#1961DB" opacity="1.000000" stroke="none" 
	d="
M143.842834,37.167061 
	C147.433762,38.222256 150.709335,39.399490 153.899231,41.194099 
	C152.970169,42.570427 152.126770,43.329376 150.885651,44.033051 
	C146.574173,43.620529 142.660446,43.263283 138.746719,42.906036 
	C140.340302,41.033722 141.933884,39.161407 143.842834,37.167061 
z"/>
<path fill="#1355D3" opacity="1.000000" stroke="none" 
	d="
M180.308578,38.966064 
	C183.524185,40.427395 186.463898,42.064514 189.653107,44.148941 
	C189.348328,45.419537 188.794052,46.242825 188.239777,47.066116 
	C184.494171,46.712120 180.748535,46.358124 176.582123,46.003044 
	C177.451797,43.715260 178.742249,41.428558 180.308578,38.966064 
z"/>
<path fill="#1559D3" opacity="1.000000" stroke="none" 
	d="
M298.448273,46.137436 
	C294.132904,45.823158 289.817566,45.508884 285.147308,45.046047 
	C285.606537,43.336430 286.420654,41.775368 287.533051,40.078812 
	C291.850311,40.746651 295.869324,41.549988 299.919434,43.026558 
	C299.449799,44.512337 298.949036,45.324886 298.448273,46.137436 
z"/>
<path fill="#1A5AD5" opacity="1.000000" stroke="none" 
	d="
M211.316132,46.748184 
	C207.271088,46.874161 203.416962,46.717518 199.358978,45.952675 
	C199.251190,44.300014 199.347260,43.255554 199.895523,42.155540 
	C203.882828,41.735165 207.417938,41.370346 210.953064,41.005531 
	C211.137726,42.825542 211.322388,44.645554 211.316132,46.748184 
z"/>
<path fill="#1355D3" opacity="1.000000" stroke="none" 
	d="
M161.166214,44.009296 
	C164.577164,42.760876 167.988098,41.512455 171.731201,40.123795 
	C172.415009,41.407227 172.766647,42.830902 173.037613,44.629223 
	C170.642990,46.152927 168.432358,47.761677 165.983856,48.311985 
	C163.856995,48.790005 161.461014,48.070560 159.338348,47.307426 
	C160.050568,45.826115 160.608398,44.917706 161.166214,44.009296 
z"/>
<path fill="#0F3BBC" opacity="1.000000" stroke="none" 
	d="
M412.019928,58.645920 
	C407.923767,58.999058 403.835205,59.005974 399.312073,59.020424 
	C398.752502,57.209217 398.627502,55.390480 398.644104,53.252296 
	C402.851044,54.405998 407.984283,52.099537 411.485718,56.700554 
	C411.832520,57.400169 411.930023,57.849934 412.019928,58.645920 
z"/>
<path fill="#113EC0" opacity="1.000000" stroke="none" 
	d="
M322.367737,56.760559 
	C317.595642,57.351852 313.080414,57.671009 308.221497,57.650238 
	C308.392120,55.805496 308.906464,54.300686 309.882080,52.850739 
	C314.778900,52.640415 319.214417,52.375229 323.649933,52.110039 
	C323.308136,53.569504 322.966370,55.028965 322.367737,56.760559 
z"/>
<path fill="#1B4ED1" opacity="1.000000" stroke="none" 
	d="
M423.997345,44.999702 
	C427.729431,44.305737 431.461487,43.611771 435.544891,42.960114 
	C435.891754,44.487576 435.887329,45.972729 435.710327,47.783058 
	C430.725922,48.058662 425.914001,48.009098 420.973083,47.583748 
	C421.895142,46.471874 422.946228,45.735786 423.997345,44.999702 
z"/>
<path fill="#1B6CDF" opacity="1.000000" stroke="none" 
	d="
M38.187302,34.820541 
	C32.860382,34.306995 27.754271,33.622265 22.164848,32.903519 
	C22.568777,30.974089 23.456013,29.078674 24.697357,27.352697 
	C26.995983,28.196852 29.008770,29.575657 30.870371,29.395166 
	C34.407478,29.052221 37.328335,29.255257 39.253834,32.628761 
	C38.971924,33.302296 38.690014,33.975826 38.187302,34.820541 
z"/>
<path fill="#175CD4" opacity="1.000000" stroke="none" 
	d="
M103.000366,41.556564 
	C99.293274,43.305153 95.567459,44.654102 91.429039,46.005238 
	C90.926186,44.973835 90.835945,43.940250 90.608696,42.538940 
	C93.611755,41.115299 96.707443,39.861900 99.922417,39.139217 
	C100.749199,38.953365 101.951729,40.439102 103.000366,41.556564 
z"/>
<path fill="#166EE3" opacity="1.000000" stroke="none" 
	d="
M39.529999,32.426125 
	C37.328335,29.255257 34.407478,29.052221 30.870371,29.395166 
	C29.008770,29.575657 26.995983,28.196852 24.977247,27.145569 
	C24.874577,26.452906 24.986954,26.199196 25.440819,25.928894 
	C31.304426,26.515345 36.967377,27.180779 43.015423,28.003016 
	C42.202400,29.514376 41.004280,30.868933 39.529999,32.426125 
z"/>
<path fill="#1663DC" opacity="1.000000" stroke="none" 
	d="
M210.984558,40.668381 
	C207.417938,41.370346 203.882828,41.735165 199.635864,41.972343 
	C197.952316,41.453163 196.980621,41.061619 196.008911,40.670082 
	C197.453812,39.478714 198.727219,37.830273 200.385651,37.208004 
	C202.617783,36.370461 205.146820,36.324150 207.985855,35.890160 
	C209.287537,37.338459 210.151779,38.834846 210.984558,40.668381 
z"/>
<path fill="#502ACB" opacity="1.000000" stroke="none" 
	d="
M532.195801,56.525650 
	C528.442322,56.935696 524.665588,56.966373 520.451538,56.996948 
	C519.611450,55.957451 519.208618,54.918060 518.763794,53.540077 
	C522.324402,52.802547 525.926941,52.403603 529.932373,52.005177 
	C530.947693,53.385887 531.560059,54.766083 532.195801,56.525650 
z"/>
<path fill="#134AC9" opacity="1.000000" stroke="none" 
	d="
M323.783386,51.764812 
	C319.214417,52.375229 314.778900,52.640415 309.939758,52.450233 
	C309.747101,50.664513 309.958038,49.334160 310.169006,48.003807 
	C314.404175,47.550087 318.639343,47.096367 322.967377,46.237991 
	C323.345764,47.695419 323.631317,49.557499 323.783386,51.764812 
z"/>
<path fill="#164ECB" opacity="1.000000" stroke="none" 
	d="
M413.048126,47.984604 
	C408.873627,50.223763 404.681183,51.407017 400.050720,48.028641 
	C400.186920,46.551479 400.686493,45.244911 401.692261,44.065483 
	C404.256012,44.371113 406.335297,44.422340 408.364166,44.768669 
	C409.964508,45.041855 411.502838,45.678288 413.059387,46.461395 
	C413.049408,47.174469 413.048767,47.579536 413.048126,47.984604 
z"/>
<path fill="#1355D3" opacity="1.000000" stroke="none" 
	d="
M395.926453,45.627945 
	C391.480530,46.329792 387.161102,46.653969 382.368530,46.602486 
	C381.767303,45.201908 381.639221,44.176994 381.511169,43.152077 
	C386.127014,42.780087 390.742828,42.408096 395.797180,42.059479 
	C396.174835,43.138660 396.113922,44.194466 395.926453,45.627945 
z"/>
<path fill="#5329CF" opacity="1.000000" stroke="none" 
	d="
M577.038208,45.002636 
	C581.057495,45.661339 585.076843,46.320042 589.504028,46.993927 
	C589.751770,48.145409 589.591553,49.281715 589.238647,50.708828 
	C585.010193,50.666752 580.974304,50.333866 576.442505,49.626720 
	C576.310486,47.835850 576.674377,46.419247 577.038208,45.002636 
z"/>
<path fill="#2672E5" opacity="1.000000" stroke="none" 
	d="
M384.403900,36.040478 
	C384.009125,35.803604 384.012177,35.619339 384.028412,35.158955 
	C388.532440,34.032879 393.023254,33.182930 398.458862,32.154167 
	C397.819946,35.128967 397.482330,36.700775 396.995178,38.645554 
	C392.830963,38.043381 388.816315,37.068233 384.403900,36.040478 
z"/>
<path fill="#1958D8" opacity="1.000000" stroke="none" 
	d="
M413.068726,46.153385 
	C411.502838,45.678288 409.964508,45.041855 408.364166,44.768669 
	C406.335297,44.422340 404.256012,44.371113 401.961487,43.839005 
	C402.556793,42.245361 403.389099,41.005341 404.500305,39.588120 
	C405.872101,39.650204 406.964203,39.892696 408.057892,40.128132 
	C410.518219,40.657772 412.979340,41.183922 415.637695,42.162315 
	C414.913086,43.793224 413.990906,44.973305 413.068726,46.153385 
z"/>
<path fill="#1355D3" opacity="1.000000" stroke="none" 
	d="
M138.469147,43.085236 
	C142.660446,43.263283 146.574173,43.620529 150.779297,44.342476 
	C150.655518,45.474564 150.240326,46.241951 149.825134,47.009338 
	C145.841049,47.007870 141.856949,47.006405 137.461823,47.004059 
	C137.431030,45.756931 137.811295,44.510681 138.469147,43.085236 
z"/>
<path fill="#0F35B6" opacity="1.000000" stroke="none" 
	d="
M89.308907,56.700024 
	C93.366913,56.170662 97.424919,55.641300 101.910057,55.110603 
	C102.108551,56.844246 101.879913,58.579227 101.411545,60.683495 
	C97.200699,60.455105 93.229576,59.857422 89.027313,58.673969 
	C88.967094,57.625473 89.138000,57.162750 89.308907,56.700024 
z"/>
<path fill="#164ECB" opacity="1.000000" stroke="none" 
	d="
M79.288300,57.448242 
	C77.062141,50.923843 72.582169,54.039566 68.223618,54.939560 
	C69.418633,50.628231 73.289368,49.679298 77.470856,48.604469 
	C79.214073,50.495827 80.570404,52.401356 81.771820,54.898239 
	C80.840706,56.142479 80.064507,56.795361 79.288300,57.448242 
z"/>
<path fill="#2882EB" opacity="1.000000" stroke="none" 
	d="
M125.023926,36.996834 
	C121.025635,36.995468 117.027351,36.994102 112.573792,37.004677 
	C111.719559,34.393818 112.439453,32.853970 115.501884,33.070198 
	C117.982506,33.245350 120.511002,32.911449 122.963608,33.227489 
	C123.885864,33.346329 124.654175,34.659828 125.755554,35.735802 
	C126.018433,36.042915 125.998650,35.985870 125.741684,35.963104 
	C125.331123,36.292507 125.177528,36.644672 125.023926,36.996834 
z"/>
<path fill="#1365DE" opacity="1.000000" stroke="none" 
	d="
M228.995728,38.049965 
	C225.105667,39.000565 221.215607,39.951164 216.874908,40.854858 
	C216.592606,39.795212 216.760956,38.782471 217.438263,37.374390 
	C219.717224,36.649258 221.533188,35.907253 223.245117,36.098175 
	C225.210114,36.317318 227.082886,37.363205 228.995728,38.049965 
z"/>
<path fill="#2882EB" opacity="1.000000" stroke="none" 
	d="
M137.112930,38.645859 
	C134.336670,37.747795 131.749802,36.507118 129.011353,34.905048 
	C131.636139,33.535103 134.412491,32.526546 138.521378,31.033932 
	C137.923096,34.601604 137.612717,36.452427 137.112930,38.645859 
z"/>
<path fill="#2882EB" opacity="1.000000" stroke="none" 
	d="
M229.320404,38.066612 
	C227.082886,37.363205 225.210114,36.317318 223.245117,36.098175 
	C221.533188,35.907253 219.717224,36.649258 217.539490,37.001877 
	C216.807129,34.500893 217.458710,32.936878 220.461624,33.087399 
	C223.527908,33.241104 226.607910,33.121418 229.757599,33.121418 
	C229.991150,34.567081 230.170044,35.674381 230.703247,37.002373 
	C231.057571,37.223064 231.025650,37.705086 230.983261,37.944744 
	C230.508942,38.150688 230.077011,38.116974 229.320404,38.066612 
z"/>
<path fill="#5741C1" opacity="1.000000" stroke="none" 
	d="
M457.853027,66.343246 
	C459.475372,69.806885 465.523163,70.414986 470.244934,67.072174 
	C470.748749,69.851059 469.533813,71.153854 466.492126,70.850128 
	C464.203888,70.621635 461.877502,70.788147 459.568695,70.744957 
	C458.918884,70.732819 458.271332,70.601242 457.184631,70.472580 
	C457.366089,69.142296 457.533600,67.914062 457.853027,66.343246 
z"/>
<path fill="#5741C1" opacity="1.000000" stroke="none" 
	d="
M523.762695,69.544098 
	C525.366882,69.418892 527.068054,69.675453 528.908325,70.270393 
	C527.318176,70.381134 525.588928,70.153496 523.762695,69.544098 
z"/>
<path fill="#5741C1" opacity="1.000000" stroke="none" 
	d="
M534.280212,70.688522 
	C534.786072,70.066628 535.623291,69.552750 536.790405,69.006142 
	C536.284058,69.581123 535.447754,70.188828 534.280212,70.688522 
z"/>
<path fill="#111BA5" opacity="1.000000" stroke="none" 
	d="
M240.883774,65.341217 
	C241.062256,65.635078 241.084763,66.258781 240.821320,66.995255 
	C240.599518,66.629036 240.663651,66.150047 240.883774,65.341217 
z"/>
<path fill="#0F35B6" opacity="1.000000" stroke="none" 
	d="
M19.178288,54.288250 
	C19.509668,54.209476 19.696823,54.467270 19.756306,55.055698 
	C19.545542,55.048885 19.347351,54.795048 19.178288,54.288250 
z"/>
<path fill="#F9F8FD" opacity="1.000000" stroke="none" 
	d="
M576.983154,44.612076 
	C576.674377,46.419247 576.310486,47.835850 575.994873,49.627998 
	C575.029114,52.085896 574.014954,54.168247 572.900940,56.586960 
	C566.182312,63.148266 561.467957,63.593082 556.260620,57.969318 
	C555.806335,57.205406 555.615234,56.931324 555.424194,56.657242 
	C555.424194,56.657242 555.485046,56.584015 555.494385,56.536934 
	C555.362976,54.275700 555.222229,52.061546 555.028687,49.425522 
	C555.647339,46.914501 556.318787,44.825356 557.000977,42.368954 
	C560.181152,36.697166 564.219543,32.990002 571.448853,34.450607 
	C572.697693,35.022465 573.526428,35.520103 574.627319,36.129013 
	C575.331848,37.714447 575.764282,39.188602 576.459595,40.870796 
	C576.790894,42.126396 576.859497,43.173954 576.983154,44.612076 
z"/>
<path fill="#502ACB" opacity="1.000000" stroke="none" 
	d="
M555.368896,56.926498 
	C555.615234,56.931324 555.806335,57.205406 555.998108,57.740738 
	C555.770386,57.733246 555.541992,57.464500 555.368896,56.926498 
z"/>
<path fill="#EDF0F9" opacity="1.000000" stroke="none" 
	d="
M79.256989,57.790844 
	C80.064507,56.795361 80.840706,56.142479 81.811615,55.253475 
	C84.382927,54.654385 86.759514,54.291416 89.527557,54.048149 
	C89.716202,54.792480 89.513397,55.417110 89.309753,56.370880 
	C89.138000,57.162750 88.967094,57.625473 88.801117,58.336601 
	C86.572868,59.948502 84.339684,61.312000 81.771683,62.703438 
	C80.699806,61.198730 79.962738,59.666088 79.256989,57.790844 
z"/>
<path fill="#F5F7FC" opacity="1.000000" stroke="none" 
	d="
M310.096924,47.615463 
	C309.958038,49.334160 309.747101,50.664513 309.478485,52.395370 
	C308.906464,54.300686 308.392120,55.805496 307.789062,57.644711 
	C306.427338,59.055286 305.154266,60.131462 303.679291,61.461052 
	C300.528656,62.427376 298.201599,61.822998 296.940308,58.351875 
	C296.853424,55.971676 296.894318,53.929276 296.903137,51.448055 
	C297.317291,49.616257 297.763489,48.223286 298.328979,46.483879 
	C298.949036,45.324886 299.449799,44.512337 299.999603,43.410919 
	C303.146698,42.088173 306.338806,39.493050 309.357056,43.890060 
	C309.735779,45.149883 309.880341,46.188503 310.096924,47.615463 
z"/>
<path fill="#F5F2FC" opacity="1.000000" stroke="none" 
	d="
M515.752686,43.439034 
	C516.004211,40.355858 516.326172,37.696075 516.925110,34.767612 
	C520.517334,34.914982 523.832642,35.331032 527.485718,35.896225 
	C527.270386,38.451004 526.717224,40.856647 525.979980,43.586601 
	C522.471680,43.894753 519.147400,43.878586 515.752686,43.439034 
z"/>
<path fill="#F5F7FC" opacity="1.000000" stroke="none" 
	d="
M381.257812,42.945358 
	C381.639221,44.176994 381.767303,45.201908 381.949005,46.612129 
	C381.592682,48.707874 381.182709,50.418320 380.727295,52.505135 
	C379.782349,54.566109 378.882812,56.250713 377.890076,58.242443 
	C376.955170,59.101097 376.113434,59.652630 375.079041,60.437702 
	C373.562408,60.710312 372.238495,60.749382 370.518066,60.722412 
	C369.502197,59.619881 368.882812,58.583393 368.122864,57.275970 
	C368.237946,54.593685 368.493561,52.182339 368.877869,49.386765 
	C369.612732,47.875031 370.218842,46.747520 370.904297,45.308098 
	C373.981140,42.722183 376.725067,39.322643 381.257812,42.945358 
z"/>
<path fill="#EDF0F9" opacity="1.000000" stroke="none" 
	d="
M195.655838,40.761665 
	C196.980621,41.061619 197.952316,41.453163 199.183685,42.027901 
	C199.347260,43.255554 199.251190,44.300014 199.070007,45.654373 
	C195.557602,46.536652 192.130310,47.109024 188.471405,47.373756 
	C188.794052,46.242825 189.348328,45.419537 189.961716,44.299919 
	C191.781464,42.953476 193.542114,41.903362 195.655838,40.761665 
z"/>
<path fill="#E9EFFA" opacity="1.000000" stroke="none" 
	d="
M413.059387,46.461395 
	C413.990906,44.973305 414.913086,43.793224 415.985596,42.325317 
	C417.836090,41.638695 419.536255,41.239899 421.622314,40.824383 
	C422.646423,41.970306 423.284637,43.132946 423.960083,44.647644 
	C422.946228,45.735786 421.895142,46.471874 420.555023,47.385841 
	C418.135986,47.698463 416.005920,47.833202 413.462006,47.976273 
	C413.048767,47.579536 413.049408,47.174469 413.059387,46.461395 
z"/>
<path fill="#F5F2FC" opacity="1.000000" stroke="none" 
	d="
M475.466370,46.991516 
	C474.915802,46.234390 474.756409,45.499386 474.570679,44.382660 
	C475.210358,40.905430 475.876434,37.809921 476.782898,34.438198 
	C479.725555,34.462036 482.427765,34.762089 485.519043,35.148502 
	C486.241730,37.210419 486.575378,39.185966 486.892456,41.561684 
	C485.310699,43.102272 483.745544,44.242695 481.927795,45.608810 
	C479.735992,46.227551 477.796783,46.620598 475.466370,46.991516 
z"/>
<path fill="#E9EFFA" opacity="1.000000" stroke="none" 
	d="
M150.050232,47.348412 
	C150.240326,46.241951 150.655518,45.474564 151.177048,44.397751 
	C152.126770,43.329376 152.970169,42.570427 153.973129,41.574989 
	C154.855957,41.165394 155.579193,40.992283 156.654404,40.699570 
	C158.324448,41.488480 159.642532,42.396992 161.063416,43.657402 
	C160.608398,44.917706 160.050568,45.826115 159.242493,46.942226 
	C156.086609,47.329113 153.180954,47.508301 150.050232,47.348412 
z"/>
<path fill="#FCFDFE" opacity="1.000000" stroke="none" 
	d="
M125.181137,37.167152 
	C125.177528,36.644672 125.331123,36.292507 125.771988,35.962654 
	C125.818954,36.435802 125.578651,36.886639 125.181137,37.167152 
z"/>
</svg>